# xmcd
#
# Track frame offsets: 
#        150
#        26728
#        51025
#        75328
#        88668
#        105800
#        126853
#        146225
#        163785
#        181723
#
# Disc length: 2700 seconds
#
# Revision: 0
# Processed by: cddbd v1.5.2PL0 Copyright (c) Steve Scherf et al.
# Submitted via: ExactAudioCopyFreeDBPlugin 1.0
#
DISCID=750a8a0a
DTITLE=De Dijk - Zeven Levens
DYEAR=1992
DGENRE=Blues
TTITLE0=Zeven levens
TTITLE1=Ze zeggen
TTITLE2=Dit is de nacht
TTITLE3=Mooi
TTITLE4=Leg me neer
TTITLE5=Melkboer met de blues
TTITLE6=Voor de tover
TTITLE7=Met alles wat ik heb
TTITLE8=Nieuwe laarzen (van een oude leest)
TTITLE9=Zo is het goed
EXTD=
EXTT0=
EXTT1=
EXTT2=
EXTT3=
EXTT4=
EXTT5=
EXTT6=
EXTT7=
EXTT8=
EXTT9=
PLAYORDER=
